<svg version="1.1" id="Layer_1" xmlns="http://www.w3.org/2000/svg" xmlns:xlink="http://www.w3.org/1999/xlink" x="0px" y="0px"
	 width="100%" viewBox="0 0 458 458" enable-background="new 0 0 458 458" xml:space="preserve">
<path fill="#000000" opacity="1.000000" stroke="none" 
	d="
M459.000000,169.000000 
	C459.000000,265.973663 459.000000,362.447327 459.000000,458.960510 
	C306.401337,458.960510 153.802658,458.960510 1.101985,458.960510 
	C1.101985,306.443054 1.101985,153.885986 1.101985,1.164473 
	C153.666519,1.164473 306.333252,1.164473 459.000000,1.164473 
	C459.000000,56.863964 459.000000,112.681984 459.000000,169.000000 
M376.805878,370.306641 
	C427.081818,314.987305 444.536163,250.743881 426.131531,178.279709 
	C399.277405,72.547356 292.397308,8.127093 185.575836,31.912918 
	C97.040726,51.626934 31.473215,128.748703 27.158468,218.902679 
	C24.765209,268.908356 38.041470,314.642700 69.381401,353.855194 
	C118.522026,415.339905 183.091629,441.005096 260.968719,430.571472 
	C306.124603,424.521729 344.445343,403.430695 376.805878,370.306641 
z"/>
<path fill="#E6E6E6" opacity="1.000000" stroke="none" 
	d="
M376.570251,370.569336 
	C344.445343,403.430695 306.124603,424.521729 260.968719,430.571472 
	C183.091629,441.005096 118.522026,415.339905 69.381401,353.855194 
	C38.041470,314.642700 24.765209,268.908356 27.158468,218.902679 
	C31.473215,128.748703 97.040726,51.626934 185.575836,31.912918 
	C292.397308,8.127093 399.277405,72.547356 426.131531,178.279709 
	C444.536163,250.743881 427.081818,314.987305 376.570251,370.569336 
M99.179001,380.341064 
	C149.805115,422.997009 207.978165,438.294159 272.435791,424.590759 
	C381.619202,401.378906 449.317657,292.883453 423.959198,184.055588 
	C404.352600,99.912285 330.403473,36.711998 244.384460,31.247318 
	C190.599121,27.830404 142.228058,42.747070 101.308914,78.145302 
	C47.256744,124.904610 24.433836,184.731186 32.504208,255.484924 
	C38.175739,305.207794 61.382534,346.507721 99.179001,380.341064 
z"/>
<path fill="#010101" opacity="1.000000" stroke="none" 
	d="
M98.896812,380.126770 
	C61.382534,346.507721 38.175739,305.207794 32.504208,255.484924 
	C24.433836,184.731186 47.256744,124.904610 101.308914,78.145302 
	C142.228058,42.747070 190.599121,27.830404 244.384460,31.247318 
	C330.403473,36.711998 404.352600,99.912285 423.959198,184.055588 
	C449.317657,292.883453 381.619202,401.378906 272.435791,424.590759 
	C207.978165,438.294159 149.805115,422.997009 98.896812,380.126770 
M231.500031,284.886322 
	C226.338211,284.914795 221.170792,284.800415 216.015762,285.002258 
	C206.077271,285.391449 198.034180,289.823700 192.298782,297.749603 
	C185.017410,307.811890 183.658173,318.910980 189.094772,330.250031 
	C194.997345,342.560944 205.351349,348.539642 218.758011,348.597412 
	C260.396637,348.776947 302.036652,348.727936 343.675751,348.622162 
	C353.803436,348.596436 362.592072,344.896149 368.957458,336.816437 
	C377.221924,326.326263 378.707550,314.637268 372.804810,302.671234 
	C366.703552,290.302643 356.127441,284.789307 342.419647,284.817291 
	C305.779877,284.892090 269.139893,284.870728 231.500031,284.886322 
M89.935944,170.655182 
	C96.015251,174.843353 102.851860,176.817932 110.128296,176.832748 
	C151.263855,176.916504 192.399933,176.951172 233.535233,176.814743 
	C243.655609,176.781174 252.515244,173.088501 258.883972,164.974411 
	C266.831482,154.848816 268.722992,143.541382 263.077362,131.779541 
	C257.330475,119.806679 247.211365,113.234810 234.086380,113.128723 
	C191.621033,112.785500 149.151184,112.993561 106.683083,113.022026 
	C105.037262,113.023125 103.350471,113.189041 101.752464,113.570297 
	C88.404915,116.754745 79.635742,124.816277 76.738235,138.354904 
	C73.904274,151.596634 78.829506,162.110413 89.935944,170.655182 
M323.831238,240.058029 
	C330.387329,217.279724 315.803253,197.802933 292.084442,197.779526 
	C251.274277,197.739258 210.464005,197.747772 169.653885,197.803864 
	C166.349274,197.808411 162.939117,197.906570 159.759171,198.693375 
	C144.444000,202.482773 133.723190,217.313705 135.480179,231.912247 
	C137.626633,249.746826 150.162933,261.251556 167.942139,261.286255 
	C209.585052,261.367554 251.228271,261.301147 292.871368,261.274261 
	C307.628296,261.264709 317.718048,254.210342 323.831238,240.058029 
z"/>
<path fill="#FDFDFD" opacity="1.000000" stroke="none" 
	d="
M232.000015,284.886932 
	C269.139893,284.870728 305.779877,284.892090 342.419647,284.817291 
	C356.127441,284.789307 366.703552,290.302643 372.804810,302.671234 
	C378.707550,314.637268 377.221924,326.326263 368.957458,336.816437 
	C362.592072,344.896149 353.803436,348.596436 343.675751,348.622162 
	C302.036652,348.727936 260.396637,348.776947 218.758011,348.597412 
	C205.351349,348.539642 194.997345,342.560944 189.094772,330.250031 
	C183.658173,318.910980 185.017410,307.811890 192.298782,297.749603 
	C198.034180,289.823700 206.077271,285.391449 216.015762,285.002258 
	C221.170792,284.800415 226.338211,284.914795 232.000015,284.886932 
z"/>
<path fill="#FDFDFD" opacity="1.000000" stroke="none" 
	d="
M89.629318,170.459915 
	C78.829506,162.110413 73.904274,151.596634 76.738235,138.354904 
	C79.635742,124.816277 88.404915,116.754745 101.752464,113.570297 
	C103.350471,113.189041 105.037262,113.023125 106.683083,113.022026 
	C149.151184,112.993561 191.621033,112.785500 234.086380,113.128723 
	C247.211365,113.234810 257.330475,119.806679 263.077362,131.779541 
	C268.722992,143.541382 266.831482,154.848816 258.883972,164.974411 
	C252.515244,173.088501 243.655609,176.781174 233.535233,176.814743 
	C192.399933,176.951172 151.263855,176.916504 110.128296,176.832748 
	C102.851860,176.817932 96.015251,174.843353 89.629318,170.459915 
z"/>
<path fill="#FEFEFE" opacity="1.000000" stroke="none" 
	d="
M323.684662,240.424896 
	C317.718048,254.210342 307.628296,261.264709 292.871368,261.274261 
	C251.228271,261.301147 209.585052,261.367554 167.942139,261.286255 
	C150.162933,261.251556 137.626633,249.746826 135.480179,231.912247 
	C133.723190,217.313705 144.444000,202.482773 159.759171,198.693375 
	C162.939117,197.906570 166.349274,197.808411 169.653885,197.803864 
	C210.464005,197.747772 251.274277,197.739258 292.084442,197.779526 
	C315.803253,197.802933 330.387329,217.279724 323.684662,240.424896 
z"/>
</svg>